<?xml version="1.0" encoding="UTF-8" standalone="no"?>
<!DOCTYPE svg PUBLIC "-//W3C//DTD SVG 1.1//EN"
 "http://www.w3.org/Graphics/SVG/1.1/DTD/svg11.dtd">
<!-- Generated by graphviz version 7.0.1 (20221109.1506)
 -->
<!-- Pages: 1 -->
<svg width="1878pt" height="543pt"
 viewBox="0.00 0.00 1878.00 543.00" xmlns="http://www.w3.org/2000/svg" xmlns:xlink="http://www.w3.org/1999/xlink">
<g id="graph0" class="graph" transform="scale(1 1) rotate(0) translate(4 539)">
<!-- all.html -->
<g id="node1" class="node">
<title>all.html</title>
<polygon fill="none" stroke="black" points="1760,-225 1677,-225 1677,-189 1760,-189 1760,-225"/>
<text text-anchor="middle" x="1718.5" y="-203.3" font-family="Courier New" font-size="14.00">all.html</text>
</g>
<!-- outputs -->
<g id="node2" class="node">
<title>outputs</title>
<polygon fill="none" stroke="black" points="1870,-225 1796,-225 1796,-189 1870,-189 1870,-225"/>
<text text-anchor="middle" x="1833" y="-203.3" font-family="Courier New" font-size="14.00">outputs</text>
</g>
<!-- all.html&#45;&gt;outputs -->
<g id="edge1" class="edge">
<title>all.html&#45;&gt;outputs</title>
<path fill="none" stroke="black" d="M1760.43,-207C1768.2,-207 1776.39,-207 1784.34,-207"/>
<polygon fill="black" stroke="black" points="1784.24,-210.5 1794.24,-207 1784.24,-203.5 1784.24,-210.5"/>
</g>
<!-- all.md -->
<g id="node3" class="node">
<title>all.md</title>
<polygon fill="none" stroke="black" points="1641,-225 1575,-225 1575,-189 1641,-189 1641,-225"/>
<text text-anchor="middle" x="1608" y="-203.3" font-family="Courier New" font-size="14.00">all.md</text>
</g>
<!-- all.md&#45;&gt;all.html -->
<g id="edge2" class="edge">
<title>all.md&#45;&gt;all.html</title>
<path fill="none" stroke="black" d="M1641.26,-207C1648.82,-207 1657.06,-207 1665.24,-207"/>
<polygon fill="black" stroke="black" points="1665.18,-210.5 1675.18,-207 1665.18,-203.5 1665.18,-210.5"/>
</g>
<!-- header.md -->
<g id="node4" class="node">
<title>header.md</title>
<polygon fill="none" stroke="black" points="1477,-414 1386,-414 1386,-378 1477,-378 1477,-414"/>
<text text-anchor="middle" x="1431.5" y="-392.3" font-family="Courier New" font-size="14.00">header.md</text>
</g>
<!-- header.md&#45;&gt;all.md -->
<g id="edge3" class="edge">
<title>header.md&#45;&gt;all.md</title>
<path fill="none" stroke="black" d="M1477.37,-393.68C1498.19,-390.51 1522.02,-383.62 1539,-369 1578.94,-334.61 1595.95,-272.84 1602.78,-236.31"/>
<polygon fill="black" stroke="black" points="1606.15,-237.35 1604.4,-226.9 1599.25,-236.16 1606.15,-237.35"/>
</g>
<!-- header&#45;knockout&#45;round.md -->
<g id="node5" class="node">
<title>header&#45;knockout&#45;round.md</title>
<polygon fill="none" stroke="black" points="1539,-360 1324,-360 1324,-324 1539,-324 1539,-360"/>
<text text-anchor="middle" x="1431.5" y="-338.3" font-family="Courier New" font-size="14.00">header&#45;knockout&#45;round.md</text>
</g>
<!-- header&#45;knockout&#45;round.md&#45;&gt;all.md -->
<g id="edge4" class="edge">
<title>header&#45;knockout&#45;round.md&#45;&gt;all.md</title>
<path fill="none" stroke="black" d="M1524.92,-323.5C1529.86,-321.02 1534.6,-318.2 1539,-315 1566.35,-295.12 1585.26,-260.55 1596.07,-235.88"/>
<polygon fill="black" stroke="black" points="1599.27,-237.3 1599.89,-226.73 1592.81,-234.61 1599.27,-237.3"/>
</g>
<!-- knockout&#45;round.md -->
<g id="node6" class="node">
<title>knockout&#45;round.md</title>
<polygon fill="none" stroke="black" points="1510,-306 1353,-306 1353,-270 1510,-270 1510,-306"/>
<text text-anchor="middle" x="1431.5" y="-284.3" font-family="Courier New" font-size="14.00">knockout&#45;round.md</text>
</g>
<!-- knockout&#45;round.md&#45;&gt;all.md -->
<g id="edge5" class="edge">
<title>knockout&#45;round.md&#45;&gt;all.md</title>
<path fill="none" stroke="black" d="M1510.39,-272.36C1520.25,-269.2 1530.03,-265.44 1539,-261 1553.64,-253.75 1568.07,-242.96 1579.85,-232.93"/>
<polygon fill="black" stroke="black" points="1581.98,-235.72 1587.16,-226.48 1577.35,-230.47 1581.98,-235.72"/>
</g>
<!-- header&#45;squad&#45;round.md -->
<g id="node7" class="node">
<title>header&#45;squad&#45;round.md</title>
<polygon fill="none" stroke="black" points="1526.5,-252 1336.5,-252 1336.5,-216 1526.5,-216 1526.5,-252"/>
<text text-anchor="middle" x="1431.5" y="-230.3" font-family="Courier New" font-size="14.00">header&#45;squad&#45;round.md</text>
</g>
<!-- header&#45;squad&#45;round.md&#45;&gt;all.md -->
<g id="edge6" class="edge">
<title>header&#45;squad&#45;round.md&#45;&gt;all.md</title>
<path fill="none" stroke="black" d="M1526.9,-219.39C1539.65,-217.42 1552.2,-215.48 1563.45,-213.74"/>
<polygon fill="black" stroke="black" points="1563.8,-217.23 1573.15,-212.24 1562.73,-210.31 1563.8,-217.23"/>
</g>
<!-- squad&#45;round.md -->
<g id="node8" class="node">
<title>squad&#45;round.md</title>
<polygon fill="none" stroke="black" points="1497.5,-198 1365.5,-198 1365.5,-162 1497.5,-162 1497.5,-198"/>
<text text-anchor="middle" x="1431.5" y="-176.3" font-family="Courier New" font-size="14.00">squad&#45;round.md</text>
</g>
<!-- squad&#45;round.md&#45;&gt;all.md -->
<g id="edge7" class="edge">
<title>squad&#45;round.md&#45;&gt;all.md</title>
<path fill="none" stroke="black" d="M1497.97,-190.13C1519.96,-193.53 1543.92,-197.24 1563.77,-200.31"/>
<polygon fill="black" stroke="black" points="1563.02,-203.74 1573.43,-201.81 1564.09,-196.82 1563.02,-203.74"/>
</g>
<!-- header&#45;bracket&#45;round.md -->
<g id="node9" class="node">
<title>header&#45;bracket&#45;round.md</title>
<polygon fill="none" stroke="black" points="1534.5,-144 1328.5,-144 1328.5,-108 1534.5,-108 1534.5,-144"/>
<text text-anchor="middle" x="1431.5" y="-122.3" font-family="Courier New" font-size="14.00">header&#45;bracket&#45;round.md</text>
</g>
<!-- header&#45;bracket&#45;round.md&#45;&gt;all.md -->
<g id="edge8" class="edge">
<title>header&#45;bracket&#45;round.md&#45;&gt;all.md</title>
<path fill="none" stroke="black" d="M1518.8,-144.5C1525.77,-147 1532.59,-149.83 1539,-153 1553.64,-160.25 1568.07,-171.04 1579.85,-181.07"/>
<polygon fill="black" stroke="black" points="1577.35,-183.53 1587.16,-187.52 1581.98,-178.28 1577.35,-183.53"/>
</g>
<!-- bracket&#45;round.md -->
<g id="node10" class="node">
<title>bracket&#45;round.md</title>
<polygon fill="none" stroke="black" points="1506,-90 1357,-90 1357,-54 1506,-54 1506,-90"/>
<text text-anchor="middle" x="1431.5" y="-68.3" font-family="Courier New" font-size="14.00">bracket&#45;round.md</text>
</g>
<!-- bracket&#45;round.md&#45;&gt;all.md -->
<g id="edge9" class="edge">
<title>bracket&#45;round.md&#45;&gt;all.md</title>
<path fill="none" stroke="black" d="M1506.25,-82.85C1517.89,-86.71 1529.28,-91.93 1539,-99 1566.35,-118.88 1585.26,-153.45 1596.07,-178.12"/>
<polygon fill="black" stroke="black" points="1592.81,-179.39 1599.89,-187.27 1599.27,-176.7 1592.81,-179.39"/>
</g>
<!-- player.html -->
<g id="node11" class="node">
<title>player.html</title>
<polygon fill="none" stroke="black" points="1485,-36 1378,-36 1378,0 1485,0 1485,-36"/>
<text text-anchor="middle" x="1431.5" y="-14.3" font-family="Courier New" font-size="14.00">player.html</text>
</g>
<!-- player.html&#45;&gt;all.md -->
<g id="edge10" class="edge">
<title>player.html&#45;&gt;all.md</title>
<path fill="none" stroke="black" d="M1485.47,-21.72C1504.16,-25.37 1524.18,-32.24 1539,-45 1578.94,-79.39 1595.95,-141.16 1602.78,-177.69"/>
<polygon fill="black" stroke="black" points="1599.25,-177.84 1604.4,-187.1 1606.15,-176.65 1599.25,-177.84"/>
</g>
<!-- squad&#45;results.json -->
<g id="node12" class="node">
<title>squad&#45;results.json</title>
<polygon fill="none" stroke="black" points="1288,-198 1123,-198 1123,-162 1288,-162 1288,-198"/>
<text text-anchor="middle" x="1205.5" y="-176.3" font-family="Courier New" font-size="14.00">squad&#45;results.json</text>
</g>
<!-- squad&#45;results.json&#45;&gt;squad&#45;round.md -->
<g id="edge11" class="edge">
<title>squad&#45;results.json&#45;&gt;squad&#45;round.md</title>
<path fill="none" stroke="black" d="M1288.32,-180C1309.62,-180 1332.5,-180 1353.54,-180"/>
<polygon fill="black" stroke="black" points="1353.5,-183.5 1363.5,-180 1353.5,-176.5 1353.5,-183.5"/>
</g>
<!-- gen_pages.py -->
<g id="node13" class="node">
<title>gen_pages.py</title>
<polygon fill="none" stroke="black" points="1263.5,-144 1147.5,-144 1147.5,-108 1263.5,-108 1263.5,-144"/>
<text text-anchor="middle" x="1205.5" y="-122.3" font-family="Courier New" font-size="14.00">gen_pages.py</text>
</g>
<!-- gen_pages.py&#45;&gt;squad&#45;round.md -->
<g id="edge12" class="edge">
<title>gen_pages.py&#45;&gt;squad&#45;round.md</title>
<path fill="none" stroke="black" d="M1263.89,-139.84C1291.37,-146.46 1324.64,-154.48 1354.21,-161.61"/>
<polygon fill="black" stroke="black" points="1353.32,-164.99 1363.86,-163.94 1354.96,-158.19 1353.32,-164.99"/>
</g>
<!-- knockout&#45;groups.md -->
<g id="node14" class="node">
<title>knockout&#45;groups.md</title>
<polygon fill="none" stroke="black" points="1288,-319 1123,-319 1123,-283 1288,-283 1288,-319"/>
<text text-anchor="middle" x="1205.5" y="-297.3" font-family="Courier New" font-size="14.00">knockout&#45;groups.md</text>
</g>
<!-- knockout&#45;groups.md&#45;&gt;knockout&#45;round.md -->
<g id="edge13" class="edge">
<title>knockout&#45;groups.md&#45;&gt;knockout&#45;round.md</title>
<path fill="none" stroke="black" d="M1288.32,-296.25C1305.54,-295.25 1323.8,-294.19 1341.28,-293.18"/>
<polygon fill="black" stroke="black" points="1341.34,-296.68 1351.12,-292.61 1340.94,-289.69 1341.34,-296.68"/>
</g>
<!-- knockout&#45;results.json -->
<g id="node15" class="node">
<title>knockout&#45;results.json</title>
<polygon fill="none" stroke="black" points="1017,-373 827,-373 827,-337 1017,-337 1017,-373"/>
<text text-anchor="middle" x="922" y="-351.3" font-family="Courier New" font-size="14.00">knockout&#45;results.json</text>
</g>
<!-- knockout&#45;results.json&#45;&gt;knockout&#45;groups.md -->
<g id="edge14" class="edge">
<title>knockout&#45;results.json&#45;&gt;knockout&#45;groups.md</title>
<path fill="none" stroke="black" d="M1017.28,-340.52C1040.15,-336.72 1064.49,-332.43 1087,-328 1096.47,-326.13 1106.35,-324.06 1116.18,-321.92"/>
<polygon fill="black" stroke="black" points="1116.73,-325.38 1125.74,-319.81 1115.23,-318.55 1116.73,-325.38"/>
</g>
<!-- transform.py -->
<g id="node16" class="node">
<title>transform.py</title>
<polygon fill="none" stroke="black" points="980,-319 864,-319 864,-283 980,-283 980,-319"/>
<text text-anchor="middle" x="922" y="-297.3" font-family="Courier New" font-size="14.00">transform.py</text>
</g>
<!-- transform.py&#45;&gt;knockout&#45;groups.md -->
<g id="edge15" class="edge">
<title>transform.py&#45;&gt;knockout&#45;groups.md</title>
<path fill="none" stroke="black" d="M980.31,-301C1017.93,-301 1068.02,-301 1111.3,-301"/>
<polygon fill="black" stroke="black" points="1111.22,-304.5 1121.22,-301 1111.22,-297.5 1111.22,-304.5"/>
</g>
<!-- bracket&#45;results.md -->
<g id="node17" class="node">
<title>bracket&#45;results.md</title>
<polygon fill="none" stroke="black" points="1288,-63 1123,-63 1123,-27 1288,-27 1288,-63"/>
<text text-anchor="middle" x="1205.5" y="-41.3" font-family="Courier New" font-size="14.00">bracket&#45;results.md</text>
</g>
<!-- bracket&#45;results.md&#45;&gt;bracket&#45;round.md -->
<g id="edge16" class="edge">
<title>bracket&#45;results.md&#45;&gt;bracket&#45;round.md</title>
<path fill="none" stroke="black" d="M1288.32,-54.86C1306.93,-57.11 1326.75,-59.49 1345.49,-61.75"/>
<polygon fill="black" stroke="black" points="1344.84,-65.2 1355.19,-62.92 1345.68,-58.25 1344.84,-65.2"/>
</g>
<!-- bracket&#45;results.json -->
<g id="node18" class="node">
<title>bracket&#45;results.json</title>
<polygon fill="none" stroke="black" points="1013,-49 831,-49 831,-13 1013,-13 1013,-49"/>
<text text-anchor="middle" x="922" y="-27.3" font-family="Courier New" font-size="14.00">bracket&#45;results.json</text>
</g>
<!-- bracket&#45;results.json&#45;&gt;bracket&#45;results.md -->
<g id="edge17" class="edge">
<title>bracket&#45;results.json&#45;&gt;bracket&#45;results.md</title>
<path fill="none" stroke="black" d="M1013.23,-35.49C1044.6,-37.05 1079.82,-38.8 1111.42,-40.37"/>
<polygon fill="black" stroke="black" points="1111.2,-43.86 1121.37,-40.87 1111.55,-36.87 1111.2,-43.86"/>
</g>
<!-- bracket&#45;track&#45;seeds.txt -->
<g id="node19" class="node">
<title>bracket&#45;track&#45;seeds.txt</title>
<polygon fill="none" stroke="black" points="688,-49 482,-49 482,-13 688,-13 688,-49"/>
<text text-anchor="middle" x="585" y="-27.3" font-family="Courier New" font-size="14.00">bracket&#45;track&#45;seeds.txt</text>
</g>
<!-- bracket&#45;track&#45;seeds.txt&#45;&gt;bracket&#45;results.json -->
<g id="edge18" class="edge">
<title>bracket&#45;track&#45;seeds.txt&#45;&gt;bracket&#45;results.json</title>
<path fill="none" stroke="black" d="M688.33,-31C729.93,-31 777.88,-31 819.4,-31"/>
<polygon fill="black" stroke="black" points="819.13,-34.5 829.13,-31 819.13,-27.5 819.13,-34.5"/>
</g>
<!-- ../round&#45;5&#45;tournament/songs&#45;tournament&#45;seeds.txt -->
<g id="node20" class="node">
<title>../round&#45;5&#45;tournament/songs&#45;tournament&#45;seeds.txt</title>
<polygon fill="none" stroke="black" points="413,-49 0,-49 0,-13 413,-13 413,-49"/>
<text text-anchor="middle" x="206.5" y="-27.3" font-family="Courier New" font-size="14.00">../round&#45;5&#45;tournament/songs&#45;tournament&#45;seeds.txt</text>
</g>
<!-- ../round&#45;5&#45;tournament/songs&#45;tournament&#45;seeds.txt&#45;&gt;bracket&#45;track&#45;seeds.txt -->
<g id="edge19" class="edge">
<title>../round&#45;5&#45;tournament/songs&#45;tournament&#45;seeds.txt&#45;&gt;bracket&#45;track&#45;seeds.txt</title>
<path fill="none" stroke="black" d="M413.38,-31C432.9,-31 452.17,-31 470.34,-31"/>
<polygon fill="black" stroke="black" points="470.29,-34.5 480.29,-31 470.29,-27.5 470.29,-34.5"/>
</g>
<!-- ../knockout&#45;results&#45;round&#45;0.txt -->
<g id="node21" class="node">
<title>../knockout&#45;results&#45;round&#45;0.txt</title>
<polygon fill="none" stroke="black" points="721,-373 449,-373 449,-337 721,-337 721,-373"/>
<text text-anchor="middle" x="585" y="-351.3" font-family="Courier New" font-size="14.00">../knockout&#45;results&#45;round&#45;0.txt</text>
</g>
<!-- ../knockout&#45;results&#45;round&#45;0.txt&#45;&gt;knockout&#45;results.json -->
<g id="edge20" class="edge">
<title>../knockout&#45;results&#45;round&#45;0.txt&#45;&gt;knockout&#45;results.json</title>
<path fill="none" stroke="black" d="M721.29,-355C752.61,-355 785.49,-355 815.33,-355"/>
<polygon fill="black" stroke="black" points="815.09,-358.5 825.09,-355 815.09,-351.5 815.09,-358.5"/>
</g>
<!-- gen_squads.py -->
<g id="node22" class="node">
<title>gen_squads.py</title>
<polygon fill="none" stroke="black" points="984,-265 860,-265 860,-229 984,-229 984,-265"/>
<text text-anchor="middle" x="922" y="-243.3" font-family="Courier New" font-size="14.00">gen_squads.py</text>
</g>
<!-- gen_squads.py&#45;&gt;squad&#45;results.json -->
<g id="edge21" class="edge">
<title>gen_squads.py&#45;&gt;squad&#45;results.json</title>
<path fill="none" stroke="black" d="M984.24,-239.37C1015.28,-234.88 1053.41,-228.42 1087,-220 1106.31,-215.16 1126.98,-208.6 1145.52,-202.2"/>
<polygon fill="black" stroke="black" points="1146.46,-205.58 1154.73,-198.97 1144.14,-198.98 1146.46,-205.58"/>
</g>
<!-- ../round&#45;1/results&#45;round&#45;1.json -->
<g id="node23" class="node">
<title>../round&#45;1/results&#45;round&#45;1.json</title>
<polygon fill="none" stroke="black" points="1058,-211 786,-211 786,-175 1058,-175 1058,-211"/>
<text text-anchor="middle" x="922" y="-189.3" font-family="Courier New" font-size="14.00">../round&#45;1/results&#45;round&#45;1.json</text>
</g>
<!-- ../round&#45;1/results&#45;round&#45;1.json&#45;&gt;squad&#45;results.json -->
<g id="edge22" class="edge">
<title>../round&#45;1/results&#45;round&#45;1.json&#45;&gt;squad&#45;results.json</title>
<path fill="none" stroke="black" d="M1058.39,-186.75C1076.41,-185.92 1094.56,-185.08 1111.63,-184.29"/>
<polygon fill="black" stroke="black" points="1111.35,-187.81 1121.17,-183.85 1111.02,-180.81 1111.35,-187.81"/>
</g>
<!-- ../round&#45;2/results&#45;round&#45;2.json -->
<g id="node24" class="node">
<title>../round&#45;2/results&#45;round&#45;2.json</title>
<polygon fill="none" stroke="black" points="1058,-157 786,-157 786,-121 1058,-121 1058,-157"/>
<text text-anchor="middle" x="922" y="-135.3" font-family="Courier New" font-size="14.00">../round&#45;2/results&#45;round&#45;2.json</text>
</g>
<!-- ../round&#45;2/results&#45;round&#45;2.json&#45;&gt;squad&#45;results.json -->
<g id="edge23" class="edge">
<title>../round&#45;2/results&#45;round&#45;2.json&#45;&gt;squad&#45;results.json</title>
<path fill="none" stroke="black" d="M1049.75,-157.46C1070.59,-160.5 1091.83,-163.59 1111.65,-166.48"/>
<polygon fill="black" stroke="black" points="1110.91,-169.91 1121.31,-167.88 1111.92,-162.98 1110.91,-169.91"/>
</g>
<!-- ../round&#45;3/tournament&#45;seed&#45;batches.yml -->
<g id="node25" class="node">
<title>../round&#45;3/tournament&#45;seed&#45;batches.yml</title>
<polygon fill="none" stroke="black" points="1087,-103 757,-103 757,-67 1087,-67 1087,-103"/>
<text text-anchor="middle" x="922" y="-81.3" font-family="Courier New" font-size="14.00">../round&#45;3/tournament&#45;seed&#45;batches.yml</text>
</g>
<!-- ../round&#45;3/tournament&#45;seed&#45;batches.yml&#45;&gt;squad&#45;results.json -->
<g id="edge24" class="edge">
<title>../round&#45;3/tournament&#45;seed&#45;batches.yml&#45;&gt;squad&#45;results.json</title>
<path fill="none" stroke="black" d="M1068.85,-103.38C1075.11,-105.92 1081.2,-108.78 1087,-112 1108.2,-123.77 1102.78,-139.61 1123,-153 1124.82,-154.2 1126.69,-155.36 1128.61,-156.47"/>
<polygon fill="black" stroke="black" points="1126.71,-159.42 1137.2,-160.91 1129.93,-153.21 1126.71,-159.42"/>
</g>
<!-- tracks.jsonl -->
<g id="node26" class="node">
<title>tracks.jsonl</title>
<polygon fill="none" stroke="black" points="643,-481 527,-481 527,-445 643,-445 643,-481"/>
<text text-anchor="middle" x="585" y="-459.3" font-family="Courier New" font-size="14.00">tracks.jsonl</text>
</g>
<!-- track&#45;str&#45;id&#45;map.json -->
<g id="node27" class="node">
<title>track&#45;str&#45;id&#45;map.json</title>
<polygon fill="none" stroke="black" points="1017,-535 827,-535 827,-499 1017,-499 1017,-535"/>
<text text-anchor="middle" x="922" y="-513.3" font-family="Courier New" font-size="14.00">track&#45;str&#45;id&#45;map.json</text>
</g>
<!-- tracks.jsonl&#45;&gt;track&#45;str&#45;id&#45;map.json -->
<g id="edge25" class="edge">
<title>tracks.jsonl&#45;&gt;track&#45;str&#45;id&#45;map.json</title>
<path fill="none" stroke="black" d="M643.21,-472.22C690.34,-479.82 758.43,-490.8 815.41,-499.98"/>
<polygon fill="black" stroke="black" points="814.72,-503.41 825.15,-501.55 815.84,-496.5 814.72,-503.41"/>
</g>
<!-- track&#45;str&#45;map.json -->
<g id="node28" class="node">
<title>track&#45;str&#45;map.json</title>
<polygon fill="none" stroke="black" points="1004.5,-481 839.5,-481 839.5,-445 1004.5,-445 1004.5,-481"/>
<text text-anchor="middle" x="922" y="-459.3" font-family="Courier New" font-size="14.00">track&#45;str&#45;map.json</text>
</g>
<!-- tracks.jsonl&#45;&gt;track&#45;str&#45;map.json -->
<g id="edge26" class="edge">
<title>tracks.jsonl&#45;&gt;track&#45;str&#45;map.json</title>
<path fill="none" stroke="black" d="M643.21,-463C693.86,-463 768.73,-463 827.98,-463"/>
<polygon fill="black" stroke="black" points="827.72,-466.5 837.72,-463 827.72,-459.5 827.72,-466.5"/>
</g>
<!-- tracks.txt -->
<g id="node29" class="node">
<title>tracks.txt</title>
<polygon fill="none" stroke="black" points="971.5,-427 872.5,-427 872.5,-391 971.5,-391 971.5,-427"/>
<text text-anchor="middle" x="922" y="-405.3" font-family="Courier New" font-size="14.00">tracks.txt</text>
</g>
<!-- tracks.jsonl&#45;&gt;tracks.txt -->
<g id="edge27" class="edge">
<title>tracks.jsonl&#45;&gt;tracks.txt</title>
<path fill="none" stroke="black" d="M643.21,-453.78C703.9,-443.99 799.38,-428.61 861.08,-418.66"/>
<polygon fill="black" stroke="black" points="861.39,-422.15 870.7,-417.11 860.27,-415.24 861.39,-422.15"/>
</g>
<!-- ../rap.jsonl -->
<g id="node30" class="node">
<title>../rap.jsonl</title>
<polygon fill="none" stroke="black" points="264.5,-454 148.5,-454 148.5,-418 264.5,-418 264.5,-454"/>
<text text-anchor="middle" x="206.5" y="-432.3" font-family="Courier New" font-size="14.00">../rap.jsonl</text>
</g>
<!-- ../rap.jsonl&#45;&gt;tracks.jsonl -->
<g id="edge28" class="edge">
<title>../rap.jsonl&#45;&gt;tracks.jsonl</title>
<path fill="none" stroke="black" d="M264.68,-440.1C331.95,-444.92 443.55,-452.93 515.41,-458.08"/>
<polygon fill="black" stroke="black" points="514.85,-461.55 525.08,-458.77 515.36,-454.57 514.85,-461.55"/>
</g>
<!-- tracks&#45;in&#45;order.jsonl -->
<g id="node31" class="node">
<title>tracks&#45;in&#45;order.jsonl</title>
<polygon fill="none" stroke="black" points="680,-427 490,-427 490,-391 680,-391 680,-427"/>
<text text-anchor="middle" x="585" y="-405.3" font-family="Courier New" font-size="14.00">tracks&#45;in&#45;order.jsonl</text>
</g>
<!-- ../rap.jsonl&#45;&gt;tracks&#45;in&#45;order.jsonl -->
<g id="edge29" class="edge">
<title>../rap.jsonl&#45;&gt;tracks&#45;in&#45;order.jsonl</title>
<path fill="none" stroke="black" d="M264.68,-431.9C321.19,-427.85 408.99,-421.55 478.23,-416.59"/>
<polygon fill="black" stroke="black" points="478.37,-420.08 488.1,-415.88 477.87,-413.1 478.37,-420.08"/>
</g>
</g>
</svg>
