<?xml version="1.0" encoding="UTF-8" standalone="no"?>
<!DOCTYPE svg PUBLIC "-//W3C//DTD SVG 1.1//EN"
 "http://www.w3.org/Graphics/SVG/1.1/DTD/svg11.dtd">
<!-- Generated by graphviz version 7.0.1 (20221109.1506)
 -->
<!-- Pages: 1 -->
<svg width="1509pt" height="827pt"
 viewBox="0.00 0.00 1509.00 827.00" xmlns="http://www.w3.org/2000/svg" xmlns:xlink="http://www.w3.org/1999/xlink">
<g id="graph0" class="graph" transform="scale(1 1) rotate(0) translate(4 823)">
<!-- bracket.txt -->
<g id="node1" class="node">
<title>bracket.txt</title>
<polygon fill="none" stroke="black" points="905.5,-63 798.5,-63 798.5,-27 905.5,-27 905.5,-63"/>
<text text-anchor="middle" x="852" y="-41.3" font-family="Courier New" font-size="14.00">bracket.txt</text>
</g>
<!-- outputs -->
<g id="node2" class="node">
<title>outputs</title>
<polygon fill="none" stroke="black" points="1102.5,-171 1028.5,-171 1028.5,-135 1102.5,-135 1102.5,-171"/>
<text text-anchor="middle" x="1065.5" y="-149.3" font-family="Courier New" font-size="14.00">outputs</text>
</g>
<!-- bracket.txt&#45;&gt;outputs -->
<g id="edge1" class="edge">
<title>bracket.txt&#45;&gt;outputs</title>
<path fill="none" stroke="black" d="M905.82,-56.93C919.55,-60.9 934.11,-65.9 947,-72 978.5,-86.89 1010.85,-109.86 1033.61,-127.55"/>
<polygon fill="black" stroke="black" points="1031.24,-130.13 1041.25,-133.58 1035.57,-124.64 1031.24,-130.13"/>
</g>
<!-- knockout&#45;groups.html -->
<g id="node3" class="node">
<title>knockout&#45;groups.html</title>
<polygon fill="none" stroke="black" points="943,-279 761,-279 761,-243 943,-243 943,-279"/>
<text text-anchor="middle" x="852" y="-257.3" font-family="Courier New" font-size="14.00">knockout&#45;groups.html</text>
</g>
<!-- knockout&#45;groups.html&#45;&gt;outputs -->
<g id="edge2" class="edge">
<title>knockout&#45;groups.html&#45;&gt;outputs</title>
<path fill="none" stroke="black" d="M926.23,-242.51C933.36,-239.95 940.4,-237.12 947,-234 978.5,-219.11 1010.85,-196.14 1033.61,-178.45"/>
<polygon fill="black" stroke="black" points="1035.57,-181.36 1041.25,-172.42 1031.24,-175.87 1035.57,-181.36"/>
</g>
<!-- squad&#45;round.html -->
<g id="node4" class="node">
<title>squad&#45;round.html</title>
<polygon fill="none" stroke="black" points="926.5,-225 777.5,-225 777.5,-189 926.5,-189 926.5,-225"/>
<text text-anchor="middle" x="852" y="-203.3" font-family="Courier New" font-size="14.00">squad&#45;round.html</text>
</g>
<!-- squad&#45;round.html&#45;&gt;outputs -->
<g id="edge3" class="edge">
<title>squad&#45;round.html&#45;&gt;outputs</title>
<path fill="none" stroke="black" d="M925.19,-188.57C955.56,-180.81 990.04,-172.01 1017.11,-165.1"/>
<polygon fill="black" stroke="black" points="1017.93,-168.5 1026.75,-162.64 1016.19,-161.72 1017.93,-168.5"/>
</g>
<!-- bracket&#45;round.html -->
<g id="node5" class="node">
<title>bracket&#45;round.html</title>
<polygon fill="none" stroke="black" points="934.5,-171 769.5,-171 769.5,-135 934.5,-135 934.5,-171"/>
<text text-anchor="middle" x="852" y="-149.3" font-family="Courier New" font-size="14.00">bracket&#45;round.html</text>
</g>
<!-- bracket&#45;round.html&#45;&gt;outputs -->
<g id="edge4" class="edge">
<title>bracket&#45;round.html&#45;&gt;outputs</title>
<path fill="none" stroke="black" d="M934.77,-153C962.54,-153 992.64,-153 1016.85,-153"/>
<polygon fill="black" stroke="black" points="1016.71,-156.5 1026.71,-153 1016.71,-149.5 1016.71,-156.5"/>
</g>
<!-- all.html -->
<g id="node6" class="node">
<title>all.html</title>
<polygon fill="none" stroke="black" points="893.5,-117 810.5,-117 810.5,-81 893.5,-81 893.5,-117"/>
<text text-anchor="middle" x="852" y="-95.3" font-family="Courier New" font-size="14.00">all.html</text>
</g>
<!-- all.html&#45;&gt;outputs -->
<g id="edge5" class="edge">
<title>all.html&#45;&gt;outputs</title>
<path fill="none" stroke="black" d="M893.78,-109.41C929.03,-118.41 979.99,-131.42 1017.06,-140.89"/>
<polygon fill="black" stroke="black" points="1016.06,-144.24 1026.62,-143.33 1017.79,-137.46 1016.06,-144.24"/>
</g>
<!-- dag.gv -->
<g id="node7" class="node">
<title>dag.gv</title>
<polygon fill="none" stroke="black" points="885,-333 819,-333 819,-297 885,-297 885,-333"/>
<text text-anchor="middle" x="852" y="-311.3" font-family="Courier New" font-size="14.00">dag.gv</text>
</g>
<!-- dag.svg -->
<g id="node8" class="node">
<title>dag.svg</title>
<polygon fill="none" stroke="black" points="1102.5,-333 1028.5,-333 1028.5,-297 1102.5,-297 1102.5,-333"/>
<text text-anchor="middle" x="1065.5" y="-311.3" font-family="Courier New" font-size="14.00">dag.svg</text>
</g>
<!-- dag.gv&#45;&gt;dag.svg -->
<g id="edge6" class="edge">
<title>dag.gv&#45;&gt;dag.svg</title>
<path fill="none" stroke="black" d="M885.12,-315C920.15,-315 976.56,-315 1016.77,-315"/>
<polygon fill="black" stroke="black" points="1016.65,-318.5 1026.65,-315 1016.65,-311.5 1016.65,-318.5"/>
</g>
<!-- edges.gv -->
<g id="node9" class="node">
<title>edges.gv</title>
<polygon fill="none" stroke="black" points="626.5,-333 543.5,-333 543.5,-297 626.5,-297 626.5,-333"/>
<text text-anchor="middle" x="585" y="-311.3" font-family="Courier New" font-size="14.00">edges.gv</text>
</g>
<!-- edges.gv&#45;&gt;dag.gv -->
<g id="edge7" class="edge">
<title>edges.gv&#45;&gt;dag.gv</title>
<path fill="none" stroke="black" d="M626.83,-315C675.75,-315 757.38,-315 807.48,-315"/>
<polygon fill="black" stroke="black" points="807.37,-318.5 817.37,-315 807.37,-311.5 807.37,-318.5"/>
</g>
<!-- Makefile -->
<g id="node10" class="node">
<title>Makefile</title>
<polygon fill="none" stroke="black" points="248,-333 165,-333 165,-297 248,-297 248,-333"/>
<text text-anchor="middle" x="206.5" y="-311.3" font-family="Courier New" font-size="14.00">Makefile</text>
</g>
<!-- Makefile&#45;&gt;edges.gv -->
<g id="edge8" class="edge">
<title>Makefile&#45;&gt;edges.gv</title>
<path fill="none" stroke="black" d="M248.15,-315C316.97,-315 456.31,-315 532.09,-315"/>
<polygon fill="black" stroke="black" points="531.72,-318.5 541.72,-315 531.72,-311.5 531.72,-318.5"/>
</g>
<!-- tracks.jsonl -->
<g id="node11" class="node">
<title>tracks.jsonl</title>
<polygon fill="none" stroke="black" points="643,-441 527,-441 527,-405 643,-405 643,-441"/>
<text text-anchor="middle" x="585" y="-419.3" font-family="Courier New" font-size="14.00">tracks.jsonl</text>
</g>
<!-- artist&#45;counts.txt -->
<g id="node12" class="node">
<title>artist&#45;counts.txt</title>
<polygon fill="none" stroke="black" points="930.5,-441 773.5,-441 773.5,-405 930.5,-405 930.5,-441"/>
<text text-anchor="middle" x="852" y="-419.3" font-family="Courier New" font-size="14.00">artist&#45;counts.txt</text>
</g>
<!-- tracks.jsonl&#45;&gt;artist&#45;counts.txt -->
<g id="edge9" class="edge">
<title>tracks.jsonl&#45;&gt;artist&#45;counts.txt</title>
<path fill="none" stroke="black" d="M643.17,-423C677.73,-423 722.51,-423 761.65,-423"/>
<polygon fill="black" stroke="black" points="761.55,-426.5 771.55,-423 761.55,-419.5 761.55,-426.5"/>
</g>
<!-- tracks.txt -->
<g id="node38" class="node">
<title>tracks.txt</title>
<polygon fill="none" stroke="black" points="901.5,-387 802.5,-387 802.5,-351 901.5,-351 901.5,-387"/>
<text text-anchor="middle" x="852" y="-365.3" font-family="Courier New" font-size="14.00">tracks.txt</text>
</g>
<!-- tracks.jsonl&#45;&gt;tracks.txt -->
<g id="edge34" class="edge">
<title>tracks.jsonl&#45;&gt;tracks.txt</title>
<path fill="none" stroke="black" d="M643.5,-411.6C667.47,-406.82 695.59,-401.18 721,-396 743.89,-391.33 769.03,-386.13 791.05,-381.55"/>
<polygon fill="black" stroke="black" points="791.69,-384.99 800.77,-379.52 790.26,-378.14 791.69,-384.99"/>
</g>
<!-- header.md -->
<g id="node13" class="node">
<title>header.md</title>
<polygon fill="none" stroke="black" points="1337,-819 1246,-819 1246,-783 1337,-783 1337,-819"/>
<text text-anchor="middle" x="1291.5" y="-797.3" font-family="Courier New" font-size="14.00">header.md</text>
</g>
<!-- all.md -->
<g id="node14" class="node">
<title>all.md</title>
<polygon fill="none" stroke="black" points="1501,-657 1435,-657 1435,-621 1501,-621 1501,-657"/>
<text text-anchor="middle" x="1468" y="-635.3" font-family="Courier New" font-size="14.00">all.md</text>
</g>
<!-- header.md&#45;&gt;all.md -->
<g id="edge10" class="edge">
<title>header.md&#45;&gt;all.md</title>
<path fill="none" stroke="black" d="M1337.47,-798.07C1358.06,-794.75 1381.67,-787.91 1399,-774 1432.58,-747.06 1451.04,-699.21 1459.98,-668.31"/>
<polygon fill="black" stroke="black" points="1463.31,-669.41 1462.55,-658.84 1456.55,-667.57 1463.31,-669.41"/>
</g>
<!-- header&#45;knockout&#45;round.md -->
<g id="node15" class="node">
<title>header&#45;knockout&#45;round.md</title>
<polygon fill="none" stroke="black" points="1399,-765 1184,-765 1184,-729 1399,-729 1399,-765"/>
<text text-anchor="middle" x="1291.5" y="-743.3" font-family="Courier New" font-size="14.00">header&#45;knockout&#45;round.md</text>
</g>
<!-- header&#45;knockout&#45;round.md&#45;&gt;all.md -->
<g id="edge11" class="edge">
<title>header&#45;knockout&#45;round.md&#45;&gt;all.md</title>
<path fill="none" stroke="black" d="M1382.55,-728.61C1388.29,-726.1 1393.83,-723.24 1399,-720 1420.26,-706.66 1438.2,-684.47 1450.31,-666.69"/>
<polygon fill="black" stroke="black" points="1453.05,-668.9 1455.59,-658.62 1447.19,-665.07 1453.05,-668.9"/>
</g>
<!-- knockout&#45;round.md -->
<g id="node16" class="node">
<title>knockout&#45;round.md</title>
<polygon fill="none" stroke="black" points="1370,-711 1213,-711 1213,-675 1370,-675 1370,-711"/>
<text text-anchor="middle" x="1291.5" y="-689.3" font-family="Courier New" font-size="14.00">knockout&#45;round.md</text>
</g>
<!-- knockout&#45;round.md&#45;&gt;all.md -->
<g id="edge12" class="edge">
<title>knockout&#45;round.md&#45;&gt;all.md</title>
<path fill="none" stroke="black" d="M1370.2,-674.55C1379.95,-671.87 1389.75,-669 1399,-666 1407.23,-663.33 1415.9,-660.17 1424.19,-656.97"/>
<polygon fill="black" stroke="black" points="1425.38,-660.27 1433.39,-653.33 1422.81,-653.76 1425.38,-660.27"/>
</g>
<!-- header&#45;squad&#45;round.md -->
<g id="node17" class="node">
<title>header&#45;squad&#45;round.md</title>
<polygon fill="none" stroke="black" points="1386.5,-657 1196.5,-657 1196.5,-621 1386.5,-621 1386.5,-657"/>
<text text-anchor="middle" x="1291.5" y="-635.3" font-family="Courier New" font-size="14.00">header&#45;squad&#45;round.md</text>
</g>
<!-- header&#45;squad&#45;round.md&#45;&gt;all.md -->
<g id="edge13" class="edge">
<title>header&#45;squad&#45;round.md&#45;&gt;all.md</title>
<path fill="none" stroke="black" d="M1386.9,-639C1399.65,-639 1412.2,-639 1423.45,-639"/>
<polygon fill="black" stroke="black" points="1423.13,-642.5 1433.13,-639 1423.13,-635.5 1423.13,-642.5"/>
</g>
<!-- squad&#45;round.md -->
<g id="node18" class="node">
<title>squad&#45;round.md</title>
<polygon fill="none" stroke="black" points="1357.5,-603 1225.5,-603 1225.5,-567 1357.5,-567 1357.5,-603"/>
<text text-anchor="middle" x="1291.5" y="-581.3" font-family="Courier New" font-size="14.00">squad&#45;round.md</text>
</g>
<!-- squad&#45;round.md&#45;&gt;all.md -->
<g id="edge14" class="edge">
<title>squad&#45;round.md&#45;&gt;all.md</title>
<path fill="none" stroke="black" d="M1357.93,-600.16C1371.6,-603.73 1385.84,-607.74 1399,-612 1407.23,-614.67 1415.9,-617.83 1424.19,-621.03"/>
<polygon fill="black" stroke="black" points="1422.81,-624.24 1433.39,-624.67 1425.38,-617.73 1422.81,-624.24"/>
</g>
<!-- header&#45;bracket&#45;round.md -->
<g id="node19" class="node">
<title>header&#45;bracket&#45;round.md</title>
<polygon fill="none" stroke="black" points="1394.5,-549 1188.5,-549 1188.5,-513 1394.5,-513 1394.5,-549"/>
<text text-anchor="middle" x="1291.5" y="-527.3" font-family="Courier New" font-size="14.00">header&#45;bracket&#45;round.md</text>
</g>
<!-- header&#45;bracket&#45;round.md&#45;&gt;all.md -->
<g id="edge15" class="edge">
<title>header&#45;bracket&#45;round.md&#45;&gt;all.md</title>
<path fill="none" stroke="black" d="M1382.55,-549.39C1388.29,-551.9 1393.83,-554.76 1399,-558 1420.26,-571.34 1438.2,-593.53 1450.31,-611.31"/>
<polygon fill="black" stroke="black" points="1447.19,-612.93 1455.59,-619.38 1453.05,-609.1 1447.19,-612.93"/>
</g>
<!-- bracket&#45;round.md -->
<g id="node20" class="node">
<title>bracket&#45;round.md</title>
<polygon fill="none" stroke="black" points="1366,-495 1217,-495 1217,-459 1366,-459 1366,-495"/>
<text text-anchor="middle" x="1291.5" y="-473.3" font-family="Courier New" font-size="14.00">bracket&#45;round.md</text>
</g>
<!-- bracket&#45;round.md&#45;&gt;all.md -->
<g id="edge16" class="edge">
<title>bracket&#45;round.md&#45;&gt;all.md</title>
<path fill="none" stroke="black" d="M1366.29,-486.89C1378.06,-490.85 1389.48,-496.36 1399,-504 1432.58,-530.94 1451.04,-578.79 1459.98,-609.69"/>
<polygon fill="black" stroke="black" points="1456.55,-610.43 1462.55,-619.16 1463.31,-608.59 1456.55,-610.43"/>
</g>
<!-- squad&#45;results.json -->
<g id="node21" class="node">
<title>squad&#45;results.json</title>
<polygon fill="none" stroke="black" points="1148,-630 983,-630 983,-594 1148,-594 1148,-630"/>
<text text-anchor="middle" x="1065.5" y="-608.3" font-family="Courier New" font-size="14.00">squad&#45;results.json</text>
</g>
<!-- squad&#45;results.json&#45;&gt;squad&#45;round.md -->
<g id="edge17" class="edge">
<title>squad&#45;results.json&#45;&gt;squad&#45;round.md</title>
<path fill="none" stroke="black" d="M1148.32,-602.14C1169.72,-599.56 1192.71,-596.79 1213.83,-594.24"/>
<polygon fill="black" stroke="black" points="1214,-597.75 1223.51,-593.07 1213.17,-590.8 1214,-597.75"/>
</g>
<!-- gen_pages.py -->
<g id="node22" class="node">
<title>gen_pages.py</title>
<polygon fill="none" stroke="black" points="1123.5,-576 1007.5,-576 1007.5,-540 1123.5,-540 1123.5,-576"/>
<text text-anchor="middle" x="1065.5" y="-554.3" font-family="Courier New" font-size="14.00">gen_pages.py</text>
</g>
<!-- gen_pages.py&#45;&gt;squad&#45;round.md -->
<g id="edge18" class="edge">
<title>gen_pages.py&#45;&gt;squad&#45;round.md</title>
<path fill="none" stroke="black" d="M1123.89,-564.92C1151.37,-568.23 1184.64,-572.24 1214.21,-575.8"/>
<polygon fill="black" stroke="black" points="1213.49,-579.24 1223.83,-576.96 1214.32,-572.29 1213.49,-579.24"/>
</g>
<!-- knockout&#45;groups.md -->
<g id="node23" class="node">
<title>knockout&#45;groups.md</title>
<polygon fill="none" stroke="black" points="1148,-738 983,-738 983,-702 1148,-702 1148,-738"/>
<text text-anchor="middle" x="1065.5" y="-716.3" font-family="Courier New" font-size="14.00">knockout&#45;groups.md</text>
</g>
<!-- knockout&#45;groups.md&#45;&gt;knockout&#45;round.md -->
<g id="edge19" class="edge">
<title>knockout&#45;groups.md&#45;&gt;knockout&#45;round.md</title>
<path fill="none" stroke="black" d="M1148.32,-710.14C1165.54,-708.06 1183.8,-705.86 1201.28,-703.75"/>
<polygon fill="black" stroke="black" points="1201.62,-707.24 1211.13,-702.57 1200.78,-700.29 1201.62,-707.24"/>
</g>
<!-- knockout&#45;round.css -->
<g id="node24" class="node">
<title>knockout&#45;round.css</title>
<polygon fill="none" stroke="black" points="1148,-684 983,-684 983,-648 1148,-648 1148,-684"/>
<text text-anchor="middle" x="1065.5" y="-662.3" font-family="Courier New" font-size="14.00">knockout&#45;round.css</text>
</g>
<!-- knockout&#45;round.css&#45;&gt;knockout&#45;round.md -->
<g id="edge20" class="edge">
<title>knockout&#45;round.css&#45;&gt;knockout&#45;round.md</title>
<path fill="none" stroke="black" d="M1148.32,-675.86C1165.54,-677.94 1183.8,-680.14 1201.28,-682.25"/>
<polygon fill="black" stroke="black" points="1200.78,-685.71 1211.13,-683.43 1201.62,-678.76 1200.78,-685.71"/>
</g>
<!-- knockout&#45;results.json -->
<g id="node25" class="node">
<title>knockout&#45;results.json</title>
<polygon fill="none" stroke="black" points="947,-765 757,-765 757,-729 947,-729 947,-765"/>
<text text-anchor="middle" x="852" y="-743.3" font-family="Courier New" font-size="14.00">knockout&#45;results.json</text>
</g>
<!-- knockout&#45;results.json&#45;&gt;knockout&#45;groups.md -->
<g id="edge21" class="edge">
<title>knockout&#45;results.json&#45;&gt;knockout&#45;groups.md</title>
<path fill="none" stroke="black" d="M947.31,-734.96C955.32,-733.94 963.42,-732.9 971.42,-731.88"/>
<polygon fill="black" stroke="black" points="971.67,-735.38 981.15,-730.64 970.78,-728.44 971.67,-735.38"/>
</g>
<!-- transform.py -->
<g id="node26" class="node">
<title>transform.py</title>
<polygon fill="none" stroke="black" points="910,-711 794,-711 794,-675 910,-675 910,-711"/>
<text text-anchor="middle" x="852" y="-689.3" font-family="Courier New" font-size="14.00">transform.py</text>
</g>
<!-- transform.py&#45;&gt;knockout&#45;groups.md -->
<g id="edge22" class="edge">
<title>transform.py&#45;&gt;knockout&#45;groups.md</title>
<path fill="none" stroke="black" d="M910.23,-700.31C929.11,-702.72 950.61,-705.46 971.45,-708.12"/>
<polygon fill="black" stroke="black" points="970.74,-711.56 981.1,-709.35 971.63,-704.62 970.74,-711.56"/>
</g>
<!-- bracket&#45;results.md -->
<g id="node27" class="node">
<title>bracket&#45;results.md</title>
<polygon fill="none" stroke="black" points="1148,-495 983,-495 983,-459 1148,-459 1148,-495"/>
<text text-anchor="middle" x="1065.5" y="-473.3" font-family="Courier New" font-size="14.00">bracket&#45;results.md</text>
</g>
<!-- bracket&#45;results.md&#45;&gt;bracket&#45;round.md -->
<g id="edge23" class="edge">
<title>bracket&#45;results.md&#45;&gt;bracket&#45;round.md</title>
<path fill="none" stroke="black" d="M1148.32,-477C1166.85,-477 1186.56,-477 1205.23,-477"/>
<polygon fill="black" stroke="black" points="1205.18,-480.5 1215.18,-477 1205.18,-473.5 1205.18,-480.5"/>
</g>
<!-- bracket&#45;results.json -->
<g id="node28" class="node">
<title>bracket&#45;results.json</title>
<polygon fill="none" stroke="black" points="943,-495 761,-495 761,-459 943,-459 943,-495"/>
<text text-anchor="middle" x="852" y="-473.3" font-family="Courier New" font-size="14.00">bracket&#45;results.json</text>
</g>
<!-- bracket&#45;results.json&#45;&gt;bracket&#45;results.md -->
<g id="edge24" class="edge">
<title>bracket&#45;results.json&#45;&gt;bracket&#45;results.md</title>
<path fill="none" stroke="black" d="M943.31,-477C952.57,-477 961.99,-477 971.28,-477"/>
<polygon fill="black" stroke="black" points="971.01,-480.5 981.01,-477 971.01,-473.5 971.01,-480.5"/>
</g>
<!-- bracket&#45;track&#45;seeds.txt -->
<g id="node29" class="node">
<title>bracket&#45;track&#45;seeds.txt</title>
<polygon fill="none" stroke="black" points="688,-495 482,-495 482,-459 688,-459 688,-495"/>
<text text-anchor="middle" x="585" y="-473.3" font-family="Courier New" font-size="14.00">bracket&#45;track&#45;seeds.txt</text>
</g>
<!-- bracket&#45;track&#45;seeds.txt&#45;&gt;bracket&#45;results.json -->
<g id="edge25" class="edge">
<title>bracket&#45;track&#45;seeds.txt&#45;&gt;bracket&#45;results.json</title>
<path fill="none" stroke="black" d="M688.46,-477C708.52,-477 729.55,-477 749.57,-477"/>
<polygon fill="black" stroke="black" points="749.39,-480.5 759.39,-477 749.39,-473.5 749.39,-480.5"/>
</g>
<!-- ../round&#45;5&#45;tournament/songs&#45;tournament&#45;seeds.txt -->
<g id="node30" class="node">
<title>../round&#45;5&#45;tournament/songs&#45;tournament&#45;seeds.txt</title>
<polygon fill="none" stroke="black" points="413,-495 0,-495 0,-459 413,-459 413,-495"/>
<text text-anchor="middle" x="206.5" y="-473.3" font-family="Courier New" font-size="14.00">../round&#45;5&#45;tournament/songs&#45;tournament&#45;seeds.txt</text>
</g>
<!-- ../round&#45;5&#45;tournament/songs&#45;tournament&#45;seeds.txt&#45;&gt;bracket&#45;track&#45;seeds.txt -->
<g id="edge26" class="edge">
<title>../round&#45;5&#45;tournament/songs&#45;tournament&#45;seeds.txt&#45;&gt;bracket&#45;track&#45;seeds.txt</title>
<path fill="none" stroke="black" d="M413.38,-477C432.9,-477 452.17,-477 470.34,-477"/>
<polygon fill="black" stroke="black" points="470.29,-480.5 480.29,-477 470.29,-473.5 470.29,-480.5"/>
</g>
<!-- ../knockout&#45;results&#45;round&#45;0.txt -->
<g id="node31" class="node">
<title>../knockout&#45;results&#45;round&#45;0.txt</title>
<polygon fill="none" stroke="black" points="721,-765 449,-765 449,-729 721,-729 721,-765"/>
<text text-anchor="middle" x="585" y="-743.3" font-family="Courier New" font-size="14.00">../knockout&#45;results&#45;round&#45;0.txt</text>
</g>
<!-- ../knockout&#45;results&#45;round&#45;0.txt&#45;&gt;knockout&#45;results.json -->
<g id="edge27" class="edge">
<title>../knockout&#45;results&#45;round&#45;0.txt&#45;&gt;knockout&#45;results.json</title>
<path fill="none" stroke="black" d="M721.22,-747C729.28,-747 737.32,-747 745.23,-747"/>
<polygon fill="black" stroke="black" points="745.2,-750.5 755.2,-747 745.2,-743.5 745.2,-750.5"/>
</g>
<!-- gen_squads.py -->
<g id="node32" class="node">
<title>gen_squads.py</title>
<polygon fill="none" stroke="black" points="914,-630 790,-630 790,-594 914,-594 914,-630"/>
<text text-anchor="middle" x="852" y="-608.3" font-family="Courier New" font-size="14.00">gen_squads.py</text>
</g>
<!-- gen_squads.py&#45;&gt;squad&#45;results.json -->
<g id="edge28" class="edge">
<title>gen_squads.py&#45;&gt;squad&#45;results.json</title>
<path fill="none" stroke="black" d="M914.46,-612C932.3,-612 952.2,-612 971.51,-612"/>
<polygon fill="black" stroke="black" points="971.29,-615.5 981.29,-612 971.29,-608.5 971.29,-615.5"/>
</g>
<!-- bracket&#45;data.json -->
<g id="node33" class="node">
<title>bracket&#45;data.json</title>
<polygon fill="none" stroke="black" points="663.5,-90 506.5,-90 506.5,-54 663.5,-54 663.5,-90"/>
<text text-anchor="middle" x="585" y="-68.3" font-family="Courier New" font-size="14.00">bracket&#45;data.json</text>
</g>
<!-- bracket&#45;data.json&#45;&gt;bracket.txt -->
<g id="edge29" class="edge">
<title>bracket&#45;data.json&#45;&gt;bracket.txt</title>
<path fill="none" stroke="black" d="M663.72,-64.08C702.89,-60.09 749.81,-55.31 786.89,-51.53"/>
<polygon fill="black" stroke="black" points="786.96,-55.04 796.55,-50.55 786.25,-48.08 786.96,-55.04"/>
</g>
<!-- asciibracket.py -->
<g id="node34" class="node">
<title>asciibracket.py</title>
<polygon fill="none" stroke="black" points="655,-36 515,-36 515,0 655,0 655,-36"/>
<text text-anchor="middle" x="585" y="-14.3" font-family="Courier New" font-size="14.00">asciibracket.py</text>
</g>
<!-- asciibracket.py&#45;&gt;bracket.txt -->
<g id="edge30" class="edge">
<title>asciibracket.py&#45;&gt;bracket.txt</title>
<path fill="none" stroke="black" d="M655.28,-25.06C695.9,-29.2 746.86,-34.39 786.61,-38.44"/>
<polygon fill="black" stroke="black" points="786.22,-41.92 796.52,-39.45 786.93,-34.95 786.22,-41.92"/>
</g>
<!-- songs&#45;by&#45;round.json -->
<g id="node35" class="node">
<title>songs&#45;by&#45;round.json</title>
<polygon fill="none" stroke="black" points="293,-117 120,-117 120,-81 293,-81 293,-117"/>
<text text-anchor="middle" x="206.5" y="-95.3" font-family="Courier New" font-size="14.00">songs&#45;by&#45;round.json</text>
</g>
<!-- songs&#45;by&#45;round.json&#45;&gt;bracket&#45;data.json -->
<g id="edge31" class="edge">
<title>songs&#45;by&#45;round.json&#45;&gt;bracket&#45;data.json</title>
<path fill="none" stroke="black" d="M293.4,-92.84C353.68,-88.52 434.06,-82.75 495.01,-78.38"/>
<polygon fill="black" stroke="black" points="494.92,-81.9 504.64,-77.69 494.42,-74.92 494.92,-81.9"/>
</g>
<!-- tidy_songs.py -->
<g id="node36" class="node">
<title>tidy_songs.py</title>
<polygon fill="none" stroke="black" points="268.5,-63 144.5,-63 144.5,-27 268.5,-27 268.5,-63"/>
<text text-anchor="middle" x="206.5" y="-41.3" font-family="Courier New" font-size="14.00">tidy_songs.py</text>
</g>
<!-- tidy_songs.py&#45;&gt;bracket&#45;data.json -->
<g id="edge32" class="edge">
<title>tidy_songs.py&#45;&gt;bracket&#45;data.json</title>
<path fill="none" stroke="black" d="M268.83,-49.4C330.12,-53.79 425,-60.6 494.65,-65.59"/>
<polygon fill="black" stroke="black" points="494.31,-69.08 504.53,-66.3 494.81,-62.09 494.31,-69.08"/>
</g>
<!-- ../rap.jsonl -->
<g id="node37" class="node">
<title>../rap.jsonl</title>
<polygon fill="none" stroke="black" points="264.5,-414 148.5,-414 148.5,-378 264.5,-378 264.5,-414"/>
<text text-anchor="middle" x="206.5" y="-392.3" font-family="Courier New" font-size="14.00">../rap.jsonl</text>
</g>
<!-- ../rap.jsonl&#45;&gt;tracks.jsonl -->
<g id="edge33" class="edge">
<title>../rap.jsonl&#45;&gt;tracks.jsonl</title>
<path fill="none" stroke="black" d="M264.68,-400.1C331.95,-404.92 443.55,-412.93 515.41,-418.08"/>
<polygon fill="black" stroke="black" points="514.85,-421.55 525.08,-418.77 515.36,-414.57 514.85,-421.55"/>
</g>
<!-- tracks&#45;in&#45;order.jsonl -->
<g id="node39" class="node">
<title>tracks&#45;in&#45;order.jsonl</title>
<polygon fill="none" stroke="black" points="680,-387 490,-387 490,-351 680,-351 680,-387"/>
<text text-anchor="middle" x="585" y="-365.3" font-family="Courier New" font-size="14.00">tracks&#45;in&#45;order.jsonl</text>
</g>
<!-- ../rap.jsonl&#45;&gt;tracks&#45;in&#45;order.jsonl -->
<g id="edge35" class="edge">
<title>../rap.jsonl&#45;&gt;tracks&#45;in&#45;order.jsonl</title>
<path fill="none" stroke="black" d="M264.68,-391.9C321.19,-387.85 408.99,-381.55 478.23,-376.59"/>
<polygon fill="black" stroke="black" points="478.37,-380.08 488.1,-375.88 477.87,-373.1 478.37,-380.08"/>
</g>
</g>
</svg>
